<?xml version="1.0" encoding="utf-8"?>
<svg xmlns="http://www.w3.org/2000/svg" viewBox="0 0 128 64" width="128px" height="64px" xmlns:bx="https://boxy-svg.com">
  <defs>
    <linearGradient id="a" x1="26.75" y1="22.91" x2="37.25" y2="41.09" gradientUnits="userSpaceOnUse" gradientTransform="matrix(1, 0, 0, 1, -9.499916, -0.00001)">
      <stop offset="0" stop-color="#fbbf24"/>
      <stop offset="0.45" stop-color="#fbbf24"/>
      <stop offset="1" stop-color="#f59e0b"/>
    </linearGradient>
    <bx:guide x="64.42453259901734" y="17.486812266474182" angle="0"/>
    <linearGradient id="gradient-1" x1="21.92" y1="18.75" x2="38.52" y2="47.52" gradientUnits="userSpaceOnUse" gradientTransform="matrix(1, 0, 0, 1, 79.499718, 0.002117)">
      <stop offset="0" stop-color="#86c3db"/>
      <stop offset="0.45" stop-color="#86c3db"/>
      <stop offset="1" stop-color="#5eafcf"/>
      <animateTransform attributeName="gradientTransform" type="rotate" values="0 111 32; 25 111 32; 0 111 32" dur="10s" repeatCount="indefinite"/>
    </linearGradient>
  </defs>
  <g>
    <circle cx="22.5" cy="32" r="10.5" stroke="#f8af18" stroke-miterlimit="10" stroke-width="0.5" fill="url(#a)"/>
    <g>
      <path d="M 22.5 15.71 L 22.5 9.5 M 22.5 54.5 L 22.5 48.29 M 34.02 20.48 L 38.41 16.09 M 6.59 47.91 L 10.98 43.52 M 10.98 20.52 L 6.59 16.13 M 38.41 47.91 L 34.02 43.52 M 6.21 32 L 0 32 M 45 32 L 38.79 32" fill="none" stroke="#fbbf24" stroke-linecap="round" stroke-miterlimit="10" stroke-width="3">
        <animateTransform attributeName="transform" dur="45s" values="0 22.5 32; 360 22.5 32" repeatCount="indefinite" type="rotate" keyTimes="0; 1"/>
      </path>
    </g>
  </g>
  <path d="M 126.16 36.202 C 116.955 36.269 109.44 28.857 109.38 19.652 C 109.384 18.251 109.569 16.856 109.93 15.502 C 97.279 17.075 91.075 31.752 98.762 41.922 C 106.449 52.091 122.262 50.125 127.226 38.383 C 127.539 37.643 127.797 36.88 128 36.102 C 127.39 36.162 126.78 36.202 126.16 36.202 Z" stroke="#72b9d5" stroke-linecap="round" stroke-linejoin="round" stroke-width="0.5" fill="url(#gradient-1)">
    <animateTransform attributeName="transform" type="rotate" values="0 111 32; 25 111 32; 0 111 32" dur="10s" repeatCount="indefinite"/>
  </path>
</svg>